<?xml version="1.0" encoding="utf-8"?>
<!-- Generator: Adobe Illustrator 16.0.4, SVG Export Plug-In . SVG Version: 6.00 Build 0)  -->
<!DOCTYPE svg PUBLIC "-//W3C//DTD SVG 1.1//EN" "http://www.w3.org/Graphics/SVG/1.1/DTD/svg11.dtd">
<svg version="1.1" id="Layer_1" xmlns="http://www.w3.org/2000/svg" xmlns:xlink="http://www.w3.org/1999/xlink" x="0px" y="0px"
	 width="512px" height="430px" viewBox="0 41 512 430" enable-background="new 0 41 512 430" xml:space="preserve">
<path d="M388.463,455.315H122.374c-10.497,0-19.007-8.512-19.007-19.008c0-27.269,11.51-60.268,30.789-88.276
	c16.113-23.409,35.908-41.03,57.289-51.321c-9.424-8.569-17.54-19.017-23.959-30.935c-10.295-19.109-15.738-41.199-15.738-63.879
	c0-31.521,10.376-61.304,29.217-83.862c19.666-23.544,46.106-36.511,74.454-36.511c28.347,0,54.789,12.967,74.454,36.512
	c18.841,22.558,29.218,52.34,29.218,83.862c0,22.681-5.44,44.77-15.735,63.878c-6.42,11.918-14.537,22.365-23.961,30.935
	c21.381,10.292,41.176,27.913,57.287,51.322c19.278,28.01,30.789,61.009,30.789,88.275
	C407.47,446.806,398.96,455.315,388.463,455.315z M143.785,417.303h223.266c-3.652-15.577-11.291-32.622-21.683-47.719
	c-16.415-23.847-36.896-39.446-57.668-43.922c-8.755-1.886-15.002-9.627-15.002-18.581v-13.578c0-6.835,3.668-13.144,9.61-16.521
	c23.551-13.397,38.77-42.869,38.77-75.085c0-45.414-29.455-82.361-65.66-82.361c-36.203,0-65.657,36.947-65.657,82.361
	c0,32.216,15.219,61.688,38.771,75.085c5.94,3.377,9.61,9.686,9.61,16.521v13.578c0,8.954-6.251,16.695-15.003,18.581
	c-20.772,4.476-41.252,20.075-57.667,43.922C155.077,384.681,147.438,401.726,143.785,417.303z M80.05,391.96H42.418
	c3.653-15.577,11.292-32.621,21.683-47.717c16.415-23.85,36.895-39.448,57.668-43.924c8.753-1.888,15.002-9.626,15.002-18.579
	v-13.579c0-6.835-3.669-13.142-9.609-16.521c-23.551-13.397-38.771-42.871-38.771-75.085c0-45.415,29.454-82.361,65.659-82.361
	c2.476,0,4.92,0.179,7.326,0.515c10.438-11.615,22.267-21.055,35.1-28.114c-13.143-6.824-27.52-10.413-42.425-10.413
	c-28.347,0-54.789,12.967-74.455,36.512c-18.84,22.557-29.216,52.34-29.216,83.861c0,22.681,5.442,44.77,15.738,63.881
	c6.42,11.917,14.536,22.363,23.959,30.934c-21.379,10.291-41.175,27.911-57.287,51.319C13.51,350.699,2,383.7,2,410.966
	c0,10.498,8.51,19.006,19.006,19.006h52.42C74.011,417.688,76.276,404.864,80.05,391.96z M438.094,429.972h52.421
	c10.497,0,19.007-8.508,19.007-19.006c0-27.266-11.512-60.267-30.788-88.274c-16.112-23.408-35.909-41.028-57.288-51.319
	c9.424-8.571,17.54-19.019,23.959-30.934c10.296-19.111,15.736-41.2,15.736-63.881c0-31.521-10.376-61.305-29.216-83.861
	c-19.666-23.545-46.108-36.512-74.454-36.512c-14.906,0-29.281,3.589-42.426,10.413c12.833,7.06,24.661,16.5,35.1,28.114
	c2.405-0.336,4.852-0.515,7.326-0.515c36.204,0,65.658,36.947,65.658,82.361c0,32.216-15.218,61.688-38.771,75.083
	c-5.938,3.379-9.608,9.688-9.608,16.521v13.579c0,8.954,6.25,16.691,15.003,18.579c20.773,4.476,41.254,20.074,57.669,43.924
	c10.394,15.096,18.029,32.14,21.684,47.717H431.47C435.244,404.864,437.51,417.688,438.094,429.972z"/>
</svg>
