<?xml version="1.0" encoding="utf-8"?>
<!-- Generator: Adobe Illustrator 16.0.4, SVG Export Plug-In . SVG Version: 6.00 Build 0)  -->
<!DOCTYPE svg PUBLIC "-//W3C//DTD SVG 1.1//EN" "http://www.w3.org/Graphics/SVG/1.1/DTD/svg11.dtd">
<svg version="1.1" id="Layer_1" xmlns="http://www.w3.org/2000/svg" xmlns:xlink="http://www.w3.org/1999/xlink" x="0px" y="0px"
	 width="512px" height="512px" viewBox="0 0 512 512" enable-background="new 0 0 512 512" xml:space="preserve">
<path d="M501.467,408.938L271.191,211.558C281.915,191.409,288,168.417,288,144C288,64.471,223.529,0,144,0
	c-14.547,0-28.586,2.166-41.823,6.177l83.195,83.195c12.445,12.445,12.445,32.81,0,45.255l-50.745,50.745
	c-12.445,12.445-32.81,12.445-45.255,0L6.177,102.177C2.166,115.414,0,129.453,0,144c0,79.529,64.471,144,144,144
	c24.417,0,47.409-6.085,67.558-16.811l197.379,230.275c11.453,13.362,31.009,14.113,43.451,1.669l50.746-50.746
	C515.58,439.945,514.829,420.392,501.467,408.938z"/>
<polygon points="393.5,219.5 343.5,219.5 343.5,150.75 274.75,150.75 274.75,100.75 343.5,100.75 343.5,32 393.5,32 393.5,100.75 
	462.25,100.75 462.25,150.75 393.5,150.75 "/>
</svg>
